<?xml version="1.0" encoding="utf-8"?>
<!-- Generator: Adobe Illustrator 24.1.2, SVG Export Plug-In . SVG Version: 6.00 Build 0)  -->
<svg version="1.1" id="Capa_1" xmlns="http://www.w3.org/2000/svg" xmlns:xlink="http://www.w3.org/1999/xlink" x="0px" y="0px"
	 viewBox="0 0 595 595" style="enable-background:new 0 0 595 595;" xml:space="preserve">
<style type="text/css">
	.st0{fill:#FCFAFA;}
</style>
<g>
	<g>
		<g>
			<path class="st0" d="M533.8,248.1L118.2,8.2c-8.7-5-18.5-7.7-28.5-7.7h0h0h0c-31.5,0-57.1,25.6-57.1,57.1v479.9
				c0,31.5,25.6,57.1,57.1,57.1c10,0,19.8-2.7,28.5-7.7l415.6-239.9c9-5.2,16.4-12.7,21.4-21.7c4.7-8.4,7.1-18,7.1-27.7
				c0-9.7-2.5-19.3-7.1-27.7C550.2,260.8,542.8,253.3,533.8,248.1z M512.4,309.8L96.8,549.8c-2.3,1.3-4.7,1.9-7.1,1.9
				c-7.4,0-14.2-5.9-14.2-14.2V57.6c0-8.3,6.8-14.2,14.2-14.2c2.4,0,4.8,0.6,7.1,1.9l415.6,239.9
				C521.9,290.7,521.9,304.3,512.4,309.8z"/>
			<path class="st0" d="M89.7,595c-31.7,0-57.6-25.8-57.6-57.6V57.6C32.2,25.8,58,0,89.7,0c10.1,0,20,2.7,28.8,7.7l415.6,239.9
				c9.1,5.2,16.5,12.8,21.6,21.9c4.7,8.5,7.2,18.2,7.2,27.9c0,9.8-2.5,19.4-7.2,27.9c-5,9.1-12.5,16.7-21.6,21.9L118.5,587.3
				C109.7,592.3,99.8,595,89.7,595z M89.7,1C58.5,1,33.2,26.4,33.2,57.6v479.9c0,31.2,25.4,56.6,56.6,56.6c9.9,0,19.6-2.6,28.2-7.6
				l415.6-239.9c8.9-5.1,16.2-12.6,21.2-21.5c4.6-8.4,7.1-17.9,7.1-27.4c0-9.6-2.5-19.1-7.1-27.4c-5-8.9-12.3-16.4-21.2-21.5
				L118,8.6C109.4,3.6,99.6,1,89.7,1z M89.7,552.2c-8.1,0-14.7-6.6-14.7-14.7V57.6c0-8.1,6.6-14.7,14.7-14.7l0,0c2.6,0,5,0.7,7.3,2
				l415.6,239.9c4.6,2.7,7.4,7.4,7.4,12.7c0,5.3-2.7,10.1-7.4,12.7L97.1,550.2C94.8,551.5,92.3,552.2,89.7,552.2z M89.7,43.8
				C82.2,43.8,76,50,76,57.6v479.9c0,7.6,6.2,13.7,13.7,13.7c2.4,0,4.7-0.6,6.8-1.9l415.6-239.9c4.3-2.5,6.9-6.9,6.9-11.9
				s-2.6-9.4-6.9-11.9L96.6,45.7C94.4,44.5,92.1,43.8,89.7,43.8L89.7,43.8z"/>
		</g>
	</g>
</g>
</svg>
